<svg xmlns="http://www.w3.org/2000/svg" viewBox="0 0 360.329 360.329"><path d="M38.042 0v360.329h284.245V0H38.042zm10.343 349.986V10.343h263.558v339.643H48.385z"/><path d="M43.21 289.12h273.9v10.343H43.21zm106.52 30.43h60.865v10.343H149.73zM43.21 45.647h273.9V55.99H43.21zM83.69 225.82h10.343v45.647H83.69zm45.65-38.05h10.343v83.69H129.34zM175 172.55h10.343v98.91H175zm45.64 30.44h10.343v68.47H220.64zm45.66-45.65h10.343v114.13H266.3zm1.508-64.525l-41.993 41.994-26.63-26.63-41.846 41.846-22.825-22.825-49.307 49.308 7.314 7.314 41.993-41.994 22.825 22.825 41.846-41.846 26.63 26.63 49.307-49.308z"/><path d="M233.424 91.301v10.343h32.869v32.87h10.343V91.301z"/></svg>