<?xml version="1.0" encoding="iso-8859-1"?>
<!-- Generator: Adobe Illustrator 19.0.0, SVG Export Plug-In . SVG Version: 6.00 Build 0)  -->
<svg version="1.1" id="Layer_1" xmlns="http://www.w3.org/2000/svg" xmlns:xlink="http://www.w3.org/1999/xlink" x="0px" y="0px"
	 viewBox="0 0 360.329 360.329" style="enable-background:new 0 0 360.329 360.329;" xml:space="preserve">
<g>
	<g>
		<path d="M38.042,0v360.329h284.245V0H38.042z M48.385,349.986V10.343h263.558v339.643H48.385z"/>
	</g>
</g>
<g>
	<g>
		<rect x="43.21" y="289.12" width="273.9" height="10.343"/>
	</g>
</g>
<g>
	<g>
		<rect x="149.73" y="319.55" width="60.865" height="10.343"/>
	</g>
</g>
<g>
	<g>
		<rect x="43.21" y="45.647" width="273.9" height="10.343"/>
	</g>
</g>
<g>
	<g>
		<rect x="83.69" y="225.82" width="10.343" height="45.647"/>
	</g>
</g>
<g>
	<g>
		<rect x="129.34" y="187.77" width="10.343" height="83.69"/>
	</g>
</g>
<g>
	<g>
		<rect x="175" y="172.55" width="10.343" height="98.91"/>
	</g>
</g>
<g>
	<g>
		<rect x="220.64" y="202.99" width="10.343" height="68.47"/>
	</g>
</g>
<g>
	<g>
		<rect x="266.3" y="157.34" width="10.343" height="114.13"/>
	</g>
</g>
<g>
	<g>
		<polygon points="267.808,92.815 225.815,134.809 199.185,108.179 157.339,150.025 134.514,127.2 85.207,176.508 92.521,183.822 
			134.514,141.828 157.339,164.653 199.185,122.807 225.815,149.437 275.122,100.129 		"/>
	</g>
</g>
<g>
	<g>
		<polygon points="233.424,91.301 233.424,101.644 266.293,101.644 266.293,134.514 276.636,134.514 276.636,91.301 		"/>
	</g>
</g>
<g>
</g>
<g>
</g>
<g>
</g>
<g>
</g>
<g>
</g>
<g>
</g>
<g>
</g>
<g>
</g>
<g>
</g>
<g>
</g>
<g>
</g>
<g>
</g>
<g>
</g>
<g>
</g>
<g>
</g>
</svg>
