<svg height="512" viewBox="0 0 512.003 512.003" width="512" xmlns="http://www.w3.org/2000/svg"><path d="M475.684 19.211H36.319C16.293 19.211 0 35.504 0 55.531v297.995c0 20.026 16.293 36.319 36.319 36.319h165.64v21.777c0 9.138-4.398 17.747-11.479 22.47l-18.744 12.504h-14.903c-9.649 0-17.499 7.85-17.499 17.499v11.197c0 9.649 7.85 17.499 17.499 17.499H238.5c4.143 0 7.5-3.357 7.5-7.5s-3.357-7.5-7.5-7.5h-81.667a2.502 2.502 0 01-2.499-2.499v-11.197a2.502 2.502 0 012.499-2.499h198.335a2.502 2.502 0 012.499 2.499v11.197a2.502 2.502 0 01-2.499 2.499H273.5c-4.143 0-7.5 3.357-7.5 7.5s3.357 7.5 7.5 7.5h81.668c9.649 0 17.499-7.85 17.499-17.499v-11.197c0-9.649-7.85-17.499-17.499-17.499h-14.903l-18.745-12.504c-7.08-4.723-11.478-13.333-11.478-22.47v-21.777h165.64c20.026 0 36.319-16.293 36.319-36.319V55.531c.002-20.027-16.291-36.32-36.317-36.32zm-162.487 427.36l.038.025H198.767l.038-.025c11.367-7.582 18.154-20.647 18.154-34.948v-21.777h78.085v21.777c0 14.3 6.786 27.365 18.153 34.948zm183.806-93.045c0 11.756-9.563 21.319-21.319 21.319H36.32c-11.756 0-21.319-9.563-21.319-21.319V55.531c0-11.756 9.563-21.319 21.319-21.319h439.364c11.756 0 21.319 9.563 21.319 21.319z"/><path d="M480.807 62.053c0-6.422-5.225-11.646-11.646-11.646H42.843c-6.422 0-11.646 5.225-11.646 11.646v284.949c0 6.422 5.225 11.646 11.647 11.646H469.16c6.423 0 11.647-5.225 11.647-11.646V62.053zM91.23 65.407h374.576v22.089H91.23zm-45.035 0H76.23v22.089H46.195zm419.613 278.242H46.195V102.496h419.612v241.153z"/><path d="M71.184 145.701v32.494c0 7.854 3.392 14.93 8.787 19.841v94.763h-1.287c-4.143 0-7.5 3.357-7.5 7.5s3.357 7.5 7.5 7.5h154.667c4.143 0 7.5-3.357 7.5-7.5s-3.357-7.5-7.5-7.5h-1.287v-94.763c5.395-4.912 8.787-11.988 8.787-19.842V145.7c0-8.274-6.731-15.006-15.006-15.006H86.19c-8.275.001-15.006 6.732-15.006 15.007zm77.334 147.098h-18.745v-46.754h18.745zm33.743 0h-18.743v-46.754h18.743zm19.923-147.104h23.661l.006 32.5c0 6.634-5.457 11.834-11.834 11.834-6.524 0-11.833-5.309-11.833-11.834zm-38.666 32.5v-32.5h23.666v32.5c0 6.525-5.309 11.834-11.833 11.834-6.52 0-11.825-5.302-11.833-11.821zm-38.667-32.5h23.666v32.501c0 6.462-5.294 11.832-11.833 11.832-6.524 0-11.833-5.309-11.833-11.833zm-7.5 51.09c10.624 11.031 28.14 10.935 38.667 0 10.539 10.962 28.12 10.993 38.666 0a26.838 26.838 0 0022.38 8.071v87.943h-19.803v-49.444c0-6.787-5.521-12.31-12.309-12.31h-57.87c-6.787 0-12.31 5.522-12.31 12.31v49.444H94.971v-87.943a26.847 26.847 0 0022.38-8.071zm-31.167-51.084l.006-.006h23.661v32.5c-.001 7.022-6.142 12.595-13.233 11.744-5.889-.699-10.434-5.73-10.434-11.744zm186.453 162.098h163.25c4.143 0 7.5-3.357 7.5-7.5s-3.357-7.5-7.5-7.5h-.036v-36.754c0-4.143-3.357-7.5-7.5-7.5s-7.5 3.357-7.5 7.5v36.754h-14.637V174.597h14.637v46.448c0 4.143 3.357 7.5 7.5 7.5s7.5-3.357 7.5-7.5v-51.712c0-5.368-4.368-9.736-9.736-9.736h-25.163c-5.369 0-9.737 4.368-9.737 9.736v123.466h-14.637v-95.964c0-5.368-4.368-9.736-9.736-9.736h-25.163c-5.369 0-9.737 4.368-9.737 9.736v95.964h-14.637v-68.461c0-5.369-4.368-9.737-9.736-9.737h-25.163c-5.369 0-9.737 4.368-9.737 9.737v68.461h-.03c-4.143 0-7.5 3.357-7.5 7.5s3.355 7.5 7.498 7.5zm74.303-105.7h14.637v90.7H346.94zm-59.273 27.502h14.637v63.198h-14.637z"/></svg>